<svg id="Capa_1" enable-background="new 0 0 510 510" height="512" viewBox="0 0 510 510" width="512" xmlns="http://www.w3.org/2000/svg" xmlns:xlink="http://www.w3.org/1999/xlink"><linearGradient id="lg1"><stop offset="0" stop-color="#fff9f6"/><stop offset=".1972" stop-color="#f8f2ef"/><stop offset=".4925" stop-color="#e6dddb"/><stop offset=".8474" stop-color="#c8bcbb"/><stop offset="1" stop-color="#b9acac"/></linearGradient><linearGradient id="SVGID_1_" gradientUnits="userSpaceOnUse" x1="154.483" x2="393.784" xlink:href="#lg1" y1="154.482" y2="393.784"/><linearGradient id="SVGID_00000146458573711692770530000011832362056539619717_" gradientTransform="matrix(-1 0 0 -1 -1858 -2156.158)" gradientUnits="userSpaceOnUse" x1="-2198.877" x2="-1994.43" xlink:href="#lg1" y1="-2497.035" y2="-2292.589"/><linearGradient id="lg2"><stop offset="0" stop-color="#9e9797" stop-opacity="0"/><stop offset=".3107" stop-color="#979090" stop-opacity=".311"/><stop offset=".7858" stop-color="#817a7a" stop-opacity=".786"/><stop offset="1" stop-color="#766e6e"/></linearGradient><linearGradient id="SVGID_00000179647315244941199440000001322009966757329035_" gradientTransform="matrix(-1 0 0 -1 -1858 -2156.158)" gradientUnits="userSpaceOnUse" x1="-2113" x2="-2113" xlink:href="#lg2" y1="-2407.521" y2="-2110.841"/><linearGradient id="SVGID_00000165956467252331929600000009656236609648079776_" gradientTransform="matrix(-1 0 0 -1 -1858 -2156.158)" gradientUnits="userSpaceOnUse" x1="-2078.502" x2="-1915.377" xlink:href="#lg2" y1="-2376.661" y2="-2213.536"/><linearGradient id="SVGID_00000101825388673636181000000006555475463129545365_" gradientUnits="userSpaceOnUse" x1="255" x2="255" xlink:href="#lg2" y1="259.257" y2="606.516"/><linearGradient id="SVGID_00000180333377875532638480000001840098792426758568_" gradientUnits="userSpaceOnUse" x1="295.379" x2="486.314" xlink:href="#lg2" y1="295.378" y2="486.314"/><linearGradient id="SVGID_00000075128355236921917000000002322708042828430481_" gradientUnits="userSpaceOnUse" x1="179.175" x2="359.692" y1="179.174" y2="359.692"><stop offset="0" stop-color="#537983"/><stop offset="1" stop-color="#384949"/></linearGradient><linearGradient id="lg3"><stop offset="0" stop-color="#554e56" stop-opacity="0"/><stop offset=".269" stop-color="#524b52" stop-opacity=".269"/><stop offset=".521" stop-color="#464147" stop-opacity=".521"/><stop offset=".7654" stop-color="#343034" stop-opacity=".765"/><stop offset="1" stop-color="#1a1a1a"/></linearGradient><linearGradient id="SVGID_00000065763209764172243370000012042302393474752149_" gradientUnits="userSpaceOnUse" x1="255" x2="255" xlink:href="#lg3" y1="273" y2="451.138"/><linearGradient id="SVGID_00000029743622236207481030000004918337613723572133_" gradientUnits="userSpaceOnUse" x1="291" x2="397.529" xlink:href="#lg3" y1="291" y2="397.529"/><linearGradient id="SVGID_00000159469507247186095230000003690735098764594104_" gradientUnits="userSpaceOnUse" x1="301.106" x2="239.288" xlink:href="#lg3" y1="363.263" y2="341.699"/><linearGradient id="SVGID_00000035488544051573860310000000857281560868401294_" gradientTransform="matrix(1 0 0 -1 0 386.36)" gradientUnits="userSpaceOnUse" x1="301.106" x2="239.288" xlink:href="#lg3" y1="239.623" y2="218.059"/><linearGradient id="SVGID_00000070811946514275032490000010378206300617243024_" gradientTransform="matrix(.707 .707 .707 -.707 -18.198 167.573)" gradientUnits="userSpaceOnUse" x1="301.106" x2="239.288" xlink:href="#lg3" y1="239.623" y2="218.059"/><linearGradient id="SVGID_00000125580348711842555850000007447852156151200392_" gradientUnits="userSpaceOnUse" x1="359.731" x2="339.125" xlink:href="#lg3" y1="284.48" y2="236.08"/><linearGradient id="SVGID_00000132801058067998251220000009340826162127822248_" gradientTransform="matrix(-1 0 0 1 702.36 0)" gradientUnits="userSpaceOnUse" x1="493.466" x2="431.648" xlink:href="#lg3" y1="363.263" y2="341.699"/><linearGradient id="SVGID_00000162311209343391029620000006022627286728303515_" gradientTransform="matrix(-1 0 0 -1 702.36 386.36)" gradientUnits="userSpaceOnUse" x1="493.466" x2="431.648" xlink:href="#lg3" y1="239.623" y2="218.059"/><linearGradient id="SVGID_00000182529923538676143710000002187960488206834109_" gradientTransform="matrix(-.707 .707 -.707 -.707 720.558 167.573)" gradientUnits="userSpaceOnUse" x1="437.125" x2="375.307" xlink:href="#lg3" y1="375.642" y2="354.078"/><linearGradient id="SVGID_00000021834863360244384410000013131715032492560787_" gradientTransform="matrix(-1 0 0 1 702.36 0)" gradientUnits="userSpaceOnUse" x1="552.091" x2="531.485" xlink:href="#lg3" y1="284.48" y2="236.08"/><linearGradient id="SVGID_00000009580211386099901220000008974731095302933136_" gradientUnits="userSpaceOnUse" x1="163.357" x2="339.168" xlink:href="#lg1" y1="162.172" y2="337.983"/><linearGradient id="SVGID_00000005265497664733828220000008361724266262533276_" gradientUnits="userSpaceOnUse" x1="218.227" x2="394.039" xlink:href="#lg1" y1="107.301" y2="283.113"/><g><g><circle cx="255" cy="255" fill="url(#SVGID_1_)" r="255"/><g><circle cx="255" cy="255" fill="url(#SVGID_00000146458573711692770530000011832362056539619717_)" r="217.859"/><path d="m472.859 255c0-120.319-97.538-217.859-217.859-217.859-120.32 0-217.859 97.54-217.859 217.859 0 26.058 4.591 51.04 12.981 74.202h409.755c8.391-23.162 12.982-48.144 12.982-74.202z" fill="url(#SVGID_00000179647315244941199440000001322009966757329035_)"/><path d="m409.049 100.951c-85.079-85.079-223.019-85.079-308.099 0-85.079 85.079-85.079 223.02 0 308.099 18.426 18.426 39.337 32.845 61.648 43.29l289.741-289.741c-10.445-22.311-24.864-43.222-43.29-61.648z" fill="url(#SVGID_00000165956467252331929600000009656236609648079776_)"/></g><path d="m0 255c0 140.832 114.167 255 255 255 140.832 0 255-114.168 255-255 0-30.501-5.373-59.742-15.194-86.852h-479.612c-9.821 27.11-15.194 56.351-15.194 86.852z" fill="url(#SVGID_00000101825388673636181000000006555475463129545365_)"/><path d="m74.688 435.312c99.583 99.583 261.041 99.584 360.624 0 99.584-99.584 99.583-261.041 0-360.624-21.567-21.567-46.043-38.444-72.158-50.67l-339.136 339.137c12.225 26.114 29.102 50.59 50.67 72.157z" fill="url(#SVGID_00000180333377875532638480000001840098792426758568_)"/></g><g><circle cx="255" cy="255" fill="url(#SVGID_00000075128355236921917000000002322708042828430481_)" r="192.36"/><path d="m62.64 255c0 106.237 86.122 192.36 192.36 192.36 106.237 0 192.36-86.123 192.36-192.36 0-23.008-4.053-45.066-11.462-65.517h-361.796c-7.409 20.451-11.462 42.508-11.462 65.517z" fill="url(#SVGID_00000065763209764172243370000012042302393474752149_)"/><path d="m118.981 391.019c75.121 75.121 196.917 75.121 272.038 0s75.121-196.917 0-272.038c-16.269-16.269-34.733-29.001-54.432-38.223l-255.829 255.829c9.222 19.699 21.953 38.163 38.223 54.432z" fill="url(#SVGID_00000029743622236207481030000004918337613723572133_)"/></g><g><path d="m255 439.36c47.182 0 94.364-17.999 130.362-53.998l-130.362-130.362z" fill="url(#SVGID_00000159469507247186095230000003690735098764594104_)"/><path d="m255 70.64c47.182 0 94.364 17.999 130.362 53.998l-130.362 130.362z" fill="url(#SVGID_00000035488544051573860310000000857281560868401294_)"/><path d="m385.362 124.638c33.363 33.362 53.998 79.452 53.998 130.362h-184.36z" fill="url(#SVGID_00000070811946514275032490000010378206300617243024_)"/><path d="m385.362 385.362c33.363-33.362 53.998-79.452 53.998-130.362h-184.36z" fill="url(#SVGID_00000125580348711842555850000007447852156151200392_)"/></g><g><path d="m255 439.36c-47.182 0-94.364-17.999-130.362-53.998l130.362-130.362z" fill="url(#SVGID_00000132801058067998251220000009340826162127822248_)"/><path d="m255 70.64c-47.182 0-94.364 17.999-130.362 53.998l130.362 130.362z" fill="url(#SVGID_00000162311209343391029620000006022627286728303515_)"/><path d="m124.638 124.638c-33.363 33.362-53.998 79.452-53.998 130.362h184.36z" fill="url(#SVGID_00000182529923538676143710000002187960488206834109_)"/><path d="m124.638 385.362c-33.363-33.362-53.998-79.452-53.998-130.362h184.36z" fill="url(#SVGID_00000021834863360244384410000013131715032492560787_)"/></g><g><path d="m427.37 259.907c2.71 0 4.907-2.197 4.907-4.907s-2.197-4.907-4.907-4.907h-19.781v-21.193h19.781c2.71 0 4.907-2.197 4.907-4.907s-2.197-4.907-4.907-4.907h-24.688c-2.71 0-4.907 2.197-4.907 4.907v26.1h-18.098c1.963-4.957 6.794-8.478 12.441-8.478 2.71 0 4.907-2.197 4.907-4.907s-2.197-4.907-4.907-4.907c-11.108 0-20.413 7.849-22.672 18.292h-4.747v-19.776c0-2.71-2.197-4.907-4.907-4.907s-4.907 2.197-4.907 4.907v19.776h-5.974c-2.258-10.442-11.563-18.292-22.671-18.292-2.71 0-4.907 2.197-4.907 4.907s2.197 4.907 4.907 4.907c5.647 0 10.478 3.52 12.44 8.478h-73.392l63.088-63.088c7.491 10.777 6.444 25.732-3.155 35.332-1.917 1.916-1.917 5.023 0 6.94.958.958 2.214 1.437 3.469 1.437s2.512-.479 3.469-1.437c13.434-13.434 14.506-34.609 3.235-49.291l3.446-3.446c3.712 2.402 8.038 3.695 12.565 3.695 6.196 0 12.022-2.413 16.403-6.795 1.917-1.916 1.917-5.023 0-6.94-1.915-1.916-5.024-1.916-6.939 0-2.528 2.528-5.89 3.921-9.464 3.921-1.867 0-3.672-.388-5.334-1.111l12.804-12.805 18.456 18.456c.92.92 2.168 1.437 3.469 1.437 1.302 0 2.549-.517 3.469-1.437l17.456-17.457c1.917-1.916 1.917-5.023 0-6.94-1.915-1.916-5.024-1.916-6.939 0l-13.987 13.987-14.986-14.986 13.987-13.987c1.917-1.916 1.917-5.023 0-6.94-1.915-1.916-5.024-1.916-6.939 0l-13.987 13.987-14.986-14.986 13.986-13.987c1.917-1.916 1.917-5.023 0-6.94-1.915-1.916-5.024-1.916-6.939 0l-17.456 17.457c-1.917 1.916-1.917 5.023 0 6.94l18.455 18.455-12.804 12.804c-.723-1.662-1.111-3.467-1.111-5.334 0-3.575 1.392-6.936 3.92-9.464 1.917-1.916 1.917-5.023 0-6.94-1.915-1.916-5.024-1.916-6.939 0-4.382 4.382-6.795 10.207-6.795 16.404 0 4.526 1.293 8.852 3.694 12.564l-3.443 3.443c-6.511-5.013-14.443-7.737-22.796-7.737-10.01 0-19.42 3.898-26.497 10.976-1.917 1.916-1.917 5.023 0 6.94 1.915 1.916 5.024 1.916 6.939 0 5.224-5.224 12.171-8.101 19.559-8.101 5.724 0 11.179 1.734 15.777 4.942l-61.534 61.534v-83.422h3.123c2.71 0 4.907-2.197 4.907-4.907s-2.197-4.907-4.907-4.907h-3.123v-5.243h3.123c2.71 0 4.907-2.197 4.907-4.907s-2.197-4.907-4.907-4.907h-3.123v-5.243h3.123c2.71 0 4.907-2.197 4.907-4.907s-2.197-4.907-4.907-4.907h-3.123v-5.243h26.1c2.71 0 4.907-2.197 4.907-4.907v-24.685c0-2.71-2.197-4.907-4.907-4.907s-4.907 2.197-4.907 4.907v19.781h-21.193v-19.781c0-2.71-2.197-4.907-4.907-4.907s-4.907 2.197-4.907 4.907v19.781h-21.19v-19.781c0-2.71-2.197-4.907-4.907-4.907s-4.907 2.197-4.907 4.907v24.687c0 2.71 2.197 4.907 4.907 4.907h26.1v5.243h-3.124c-2.71 0-4.907 2.197-4.907 4.907s2.197 4.907 4.907 4.907h3.124v5.243h-3.124c-2.71 0-4.907 2.197-4.907 4.907s2.197 4.907 4.907 4.907h3.124v5.243h-3.124c-2.71 0-4.907 2.197-4.907 4.907s2.197 4.907 4.907 4.907h3.124v83.422l-62.965-62.966c.818-.218 1.667-.34 2.536-.34 2.622 0 5.087 1.021 6.941 2.875 1.915 1.915 5.022 1.916 6.94 0 1.916-1.916 1.916-5.023 0-6.94-3.708-3.708-8.637-5.749-13.88-5.749-3.563 0-6.97.963-9.959 2.731l-.06-.06 22.774-22.774c.92-.92 1.437-2.169 1.437-3.47s-.517-2.549-1.437-3.47l-39.039-39.038c-1.917-1.916-5.023-1.916-6.94 0-1.916 1.916-1.916 5.023 0 6.94l35.569 35.568-19.304 19.304-2.444-2.444 2.209-2.209c1.916-1.916 1.916-5.023 0-6.94-1.916-1.916-5.022-1.916-6.94 0l-2.209 2.209-2.35-2.35c4.43-7.524 3.44-17.381-3.013-23.834-3.708-3.708-8.637-5.749-13.88-5.749-5.244 0-10.173 2.042-13.88 5.749-3.708 3.708-5.749 8.637-5.749 13.88s2.042 10.173 5.749 13.88c3.827 3.827 8.853 5.74 13.88 5.74 3.451 0 6.892-.924 9.954-2.727l2.35 2.35-2.209 2.209c-1.916 1.916-1.916 5.023 0 6.94.958.958 2.214 1.437 3.47 1.437 1.255 0 2.511-.479 3.47-1.437l2.209-2.209 2.444 2.444-19.304 19.304-35.568-35.568c-1.917-1.916-5.023-1.916-6.94 0-1.916 1.916-1.916 5.023 0 6.94l39.038 39.038c.958.958 2.214 1.437 3.47 1.437s2.511-.479 3.47-1.437l22.774-22.774.065.065c-4.43 7.524-3.441 17.38 3.013 23.834.958.958 2.214 1.437 3.47 1.437 1.255 0 2.511-.479 3.47-1.437 1.916-1.916 1.916-5.023 0-6.94-2.563-2.563-3.4-6.2-2.531-9.473l64.52 64.52h-130.705v-26.548-30.778c0-2.71-2.197-4.907-4.907-4.907h-26.471c-2.71 0-4.907 2.197-4.907 4.907s2.197 4.907 4.907 4.907h21.565v20.965h-21.565c-2.71 0-4.907 2.197-4.907 4.907s2.197 4.907 4.907 4.907h21.565v21.641h-20.007c-2.71 0-4.907 2.197-4.907 4.907s2.197 4.907 4.907 4.907h20.007v21.641h-21.565c-2.71 0-4.907 2.197-4.907 4.907s2.197 4.907 4.907 4.907h21.565v20.965h-21.565c-2.71 0-4.907 2.197-4.907 4.907s2.197 4.907 4.907 4.907h26.472c2.71 0 4.907-2.197 4.907-4.907v-30.778-26.548h127.586l-55.125 55.125c-2.118-4.893-1.191-10.798 2.802-14.791 1.916-1.916 1.916-5.023 0-6.94-1.917-1.916-5.023-1.916-6.94 0-7.854 7.855-8.884 19.984-3.097 28.965l-4.827 4.827-2.209-2.209c-1.916-1.915-5.022-1.916-6.94 0-1.916 1.916-1.916 5.023 0 6.94l2.209 2.209-4.359 4.359-18.456-18.456c-.92-.92-2.169-1.437-3.47-1.437s-2.549.517-3.47 1.437l-29.443 29.443c-1.916 1.916-1.916 5.023 0 6.94 1.917 1.916 5.023 1.916 6.94 0l25.973-25.973 14.986 14.986-4.282 4.282-2.209-2.209c-1.916-1.915-5.022-1.916-6.94 0-1.916 1.916-1.916 5.023 0 6.94l2.209 2.209-3.707 3.707-2.209-2.209c-1.917-1.915-5.023-1.916-6.94 0-1.916 1.916-1.916 5.023 0 6.94l2.209 2.209-4.105 4.105c-1.916 1.916-1.916 5.023 0 6.94.958.958 2.214 1.437 3.47 1.437s2.511-.479 3.47-1.437l4.105-4.105 2.209 2.209c.958.958 2.214 1.437 3.47 1.437 1.255 0 2.511-.479 3.47-1.437 1.916-1.916 1.916-5.023 0-6.94l-2.209-2.209 3.707-3.707 2.209 2.209c.958.958 2.214 1.437 3.47 1.437 1.255 0 2.511-.479 3.47-1.437 1.916-1.916 1.916-5.023 0-6.94l-2.209-2.209 4.282-4.282 14.986 14.986-25.973 25.973c-1.916 1.916-1.916 5.023 0 6.94.958.958 2.214 1.437 3.47 1.437 1.255 0 2.512-.479 3.47-1.437l29.443-29.443c.92-.92 1.437-2.169 1.437-3.47s-.517-2.549-1.437-3.47l-18.455-18.456 4.359-4.359 2.209 2.209c.958.958 2.214 1.437 3.47 1.437 1.255 0 2.511-.479 3.47-1.437 1.916-1.916 1.916-5.023 0-6.94l-2.209-2.209 4.824-4.824c3.712 2.402 8.038 3.695 12.564 3.695 6.196 0 12.022-2.413 16.404-6.795 1.916-1.916 1.916-5.023 0-6.94-1.917-1.916-5.024-1.916-6.94 0-2.528 2.528-5.889 3.921-9.464 3.921-1.867 0-3.672-.388-5.334-1.111l56.69-56.69v85.408h-3.124c-2.71 0-4.907 2.197-4.907 4.907s2.197 4.907 4.907 4.907h3.124v5.243h-3.124c-2.71 0-4.907 2.197-4.907 4.907s2.197 4.907 4.907 4.907h3.124v6.263h-57.326c-2.71 0-4.907 2.197-4.907 4.907v22.457h-3.124c-2.71 0-4.907 2.197-4.907 4.907s2.197 4.907 4.907 4.907h3.124v2.677h-3.124c-2.71 0-4.907 2.197-4.907 4.907s2.197 4.907 4.907 4.907h16.061c2.71 0 4.907-2.197 4.907-4.907s-2.197-4.907-4.907-4.907h-3.123v-2.677h3.123c2.71 0 4.907-2.197 4.907-4.907s-2.197-4.907-4.907-4.907h-3.123v-17.55h6.584v4.461c0 2.71 2.197 4.907 4.907 4.907s4.907-2.197 4.907-4.907v-4.461h36.021v5.353h-26.1c-2.71 0-4.907 2.197-4.907 4.907v24.687c0 2.71 2.197 4.907 4.907 4.907s4.907-2.197 4.907-4.907v-19.784h21.193v14.874h-3.124c-2.71 0-4.907 2.197-4.907 4.907s2.197 4.907 4.907 4.907h16.061c2.71 0 4.907-2.197 4.907-4.907s-2.197-4.907-4.907-4.907h-3.123v-14.874h21.192v19.781c0 2.71 2.197 4.907 4.907 4.907s4.907-2.197 4.907-4.907v-24.687c0-2.71-2.197-4.907-4.907-4.907h-26.1v-5.353h36.021v4.461c0 2.71 2.197 4.907 4.907 4.907s4.907-2.197 4.907-4.907v-4.461h6.584v17.55h-3.123c-2.71 0-4.907 2.197-4.907 4.907s2.197 4.907 4.907 4.907h3.123v2.677h-3.123c-2.71 0-4.907 2.197-4.907 4.907s2.197 4.907 4.907 4.907h16.061c2.71 0 4.907-2.197 4.907-4.907s-2.197-4.907-4.907-4.907h-3.123v-2.677h3.123c2.71 0 4.907-2.197 4.907-4.907s-2.197-4.907-4.907-4.907h-3.123v-22.457c0-2.71-2.197-4.907-4.907-4.907h-57.326v-6.263h3.123c2.71 0 4.907-2.197 4.907-4.907s-2.197-4.907-4.907-4.907h-3.123v-5.243h3.123c2.71 0 4.907-2.197 4.907-4.907s-2.197-4.907-4.907-4.907h-3.123v-85.408l60.09 60.09-2.209 2.209c-1.917 1.916-1.917 5.023-.001 6.94.958.958 2.214 1.437 3.47 1.437 1.255 0 2.512-.479 3.469-1.437l2.209-2.209 3.708 3.707-2.209 2.209c-1.917 1.916-1.917 5.023-.001 6.94.958.958 2.214 1.437 3.47 1.437 1.255 0 2.512-.479 3.469-1.437l2.209-2.209 3.708 3.708-2.209 2.209c-1.917 1.916-1.917 5.023-.001 6.94.958.958 2.214 1.437 3.47 1.437 1.255 0 2.512-.479 3.469-1.437l2.209-2.209 3.708 3.708-18.455 18.455c-1.917 1.916-1.917 5.023 0 6.94l17.456 17.456c.958.958 2.214 1.437 3.469 1.437s2.512-.479 3.469-1.437c1.917-1.916 1.917-5.023 0-6.94l-13.986-13.987 14.986-14.986 13.987 13.987c.958.958 2.214 1.437 3.469 1.437s2.512-.479 3.469-1.437c1.917-1.916 1.917-5.023 0-6.94l-13.987-13.987 14.986-14.986 13.987 13.987c1.914 1.915 5.023 1.917 6.939 0 1.917-1.916 1.917-5.023 0-6.94l-17.456-17.457c-.92-.92-2.168-1.437-3.469-1.437-1.302 0-2.549.517-3.469 1.437l-18.456 18.456-3.707-3.707 2.209-2.209c1.917-1.916 1.917-5.023.001-6.94-1.917-1.915-5.025-1.916-6.94 0l-2.21 2.209-3.708-3.708 2.209-2.209c1.917-1.916 1.917-5.023.001-6.94-1.916-1.915-5.024-1.917-6.94 0l-2.21 2.209-3.708-3.708 2.209-2.209c1.917-1.916 1.917-5.023.001-6.94-1.916-1.915-5.024-1.916-6.94 0l-2.21 2.209-58.532-58.532h70.276c-1.962 4.957-6.793 8.478-12.44 8.478-2.71 0-4.907 2.197-4.907 4.907s2.197 4.907 4.907 4.907c11.108 0 20.413-7.849 22.671-18.292h5.974v19.776c0 2.71 2.197 4.907 4.907 4.907s4.907-2.197 4.907-4.907v-19.776h4.747c2.258 10.442 11.564 18.292 22.672 18.292 2.71 0 4.907-2.197 4.907-4.907s-2.197-4.907-4.907-4.907c-5.647 0-10.478-3.52-12.441-8.478h18.098v26.1c0 2.71 2.197 4.907 4.907 4.907h24.688c2.71 0 4.907-2.197 4.907-4.907s-2.197-4.907-4.907-4.907h-19.781v-21.193h19.785zm-290.233-110.446c-1.854-1.854-2.875-4.319-2.875-6.941 0-.869.123-1.718.34-2.536l12.008 12.008c-3.273.869-6.91.031-9.473-2.531zm16.413-4.409-12.008-12.008c.818-.218 1.667-.34 2.536-.34 2.622 0 5.087 1.021 6.941 2.875 2.562 2.563 3.4 6.199 2.531 9.473z" fill="url(#SVGID_00000009580211386099901220000008974731095302933136_)"/><g fill="url(#SVGID_00000005265497664733828220000008361724266262533276_)"><circle cx="299.236" cy="188.311" r="5.204"/><circle cx="321.689" cy="210.764" r="5.204"/></g></g></g></svg>