<svg xmlns="http://www.w3.org/2000/svg" version="1.1" xmlns:xlink="http://www.w3.org/1999/xlink" xmlns:svgjs="http://svgjs.dev/svgjs" width="1500" height="1500" viewBox="0 0 1500 1500"><rect width="1500" height="1500" fill="#ffffff"></rect><g transform="matrix(0.6666666666666666,0,0,0.6666666666666666,249.39393939393938,672.9032888835661)"><svg viewBox="0 0 396 61" data-background-color="#ffffff" preserveAspectRatio="xMidYMid meet" height="231" width="1500" xmlns="http://www.w3.org/2000/svg" xmlns:xlink="http://www.w3.org/1999/xlink"><g id="tight-bounds" transform="matrix(1,0,0,1,0.2400000000000091,0.03830765001603709)"><svg viewBox="0 0 395.52 60.923384699967905" height="60.923384699967905" width="395.52"><g><svg viewBox="0 0 488.537578125 75.251220703125" height="60.923384699967905" width="395.52"><g><svg viewBox="0 0 488.537578125 75.251220703125" height="75.251220703125" width="488.537578125"><g id="textblocktransform"><svg viewBox="0 0 488.537578125 75.251220703125" height="75.251220703125" width="488.537578125" id="textblock"><g><svg viewBox="0 0 488.537578125 75.251220703125" height="75.251220703125" width="488.537578125"><g><svg><g></g><g></g></svg></g><g><svg><g></g><g><svg></svg></g></svg></g><g id="text-0"><svg viewBox="0 0 488.537578125 75.251220703125" height="75.251220703125" width="488.537578125"><g><svg xmlns="http://www.w3.org/2000/svg" xmlns:xlink="http://www.w3.org/1999/xlink" version="1.1" x="0" y="0" viewBox="5 5 90 90" enable-background="new 0 0 100 100" xml:space="preserve" height="75.251220703125" width="75.251220703125" class="icon-dxe-0" data-fill-palette-color="accent" id="dxe-0"><g fill="#aba944" data-fill-palette-color="accent"><path d="M50 5C25.2 5 5 25.2 5 50S25.2 95 50 95 95 74.8 95 50 74.8 5 50 5M90.4 39.4C90.8 38.8 91.6 38.6 92.2 39S93 40.2 92.6 40.8 91.4 41.6 90.8 41.2 90.1 40 90.4 39.4M87.5 31.5C87.8 30.8 88.5 30.5 89.1 30.8 89.8 31.1 90.1 31.8 89.8 32.4 89.5 33.1 88.8 33.4 88.2 33.1 87.6 32.9 87.2 32.2 87.5 31.5M84.8 23.7C85.5 23.8 86 24.5 85.8 25.2 85.7 25.9 85 26.4 84.3 26.2 83.6 26.1 83.1 25.4 83.3 24.7 83.4 24.1 84.1 23.6 84.8 23.7M80.1 18.5C80.8 18.5 81.4 19 81.4 19.7S80.9 21 80.2 21 78.9 20.5 78.9 19.8C78.8 19.1 79.3 18.5 80.1 18.5M73.5 13.3C74.2 13.2 74.9 13.6 75 14.3S74.7 15.7 74 15.8 72.6 15.5 72.5 14.8C72.4 14.2 72.9 13.5 73.5 13.3M65.7 9.4C66.3 9.1 67.1 9.4 67.4 10.1 67.7 10.7 67.4 11.5 66.8 11.8S65.4 11.8 65.1 11.2C64.8 10.4 65.1 9.6 65.7 9.4M57.7 7.1C58.3 6.7 59.1 6.8 59.5 7.4S59.8 8.8 59.2 9.2 57.8 9.5 57.4 8.9 57.1 7.5 57.7 7.1M48.9 6.4C49.4 5.9 50.2 5.9 50.7 6.4S51.2 7.7 50.7 8.2 49.4 8.7 48.9 8.2C48.5 7.8 48.5 7 48.9 6.4M40.7 7.4C41.1 6.8 41.9 6.6 42.5 7S43.3 8.2 42.9 8.8 41.7 9.6 41.1 9.2 40.3 8 40.7 7.4M32.4 10.2C32.6 9.5 33.4 9.2 34 9.5 34.7 9.8 35 10.5 34.7 11.1 34.4 11.8 33.7 12.1 33.1 11.8 32.4 11.6 32.1 10.8 32.4 10.2M26.6 13.2C27.3 13.3 27.8 14 27.6 14.7 27.5 15.4 26.8 15.9 26.1 15.7 25.4 15.6 24.9 14.9 25.1 14.2S25.9 13.1 26.6 13.2M18.5 19.9C19.2 19.9 19.8 20.4 19.8 21.1S19.3 22.4 18.6 22.4 17.3 21.9 17.3 21.2C17.2 20.5 17.8 19.9 18.5 19.9M13.4 26.4C14.1 26.2 14.8 26.7 14.9 27.4S14.6 28.8 13.9 28.9 12.5 28.6 12.4 27.9 12.7 26.6 13.4 26.4M9.4 34.2C10 33.9 10.8 34.2 11.1 34.9 11.4 35.5 11.1 36.3 10.4 36.6 9.8 36.9 9 36.6 8.7 35.9 8.4 35.3 8.7 34.5 9.4 34.2M7.1 42.2C7.7 41.8 8.5 41.9 8.9 42.5S9.2 43.9 8.6 44.3 7.2 44.6 6.8 44 6.6 42.6 7.1 42.2M6.4 51C6.9 50.5 7.7 50.5 8.2 51S8.7 52.3 8.2 52.8 6.9 53.3 6.4 52.8C6 52.3 6 51.5 6.4 51M9.6 60.6C9.2 61.2 8.4 61.4 7.8 61S7 59.8 7.4 59.2 8.6 58.4 9.2 58.8 9.9 60 9.6 60.6M12.5 68.5C12.2 69.2 11.5 69.5 10.8 69.2S9.8 68.2 10.1 67.6C10.4 66.9 11.1 66.6 11.7 66.9 12.4 67.1 12.8 67.8 12.5 68.5M15.2 76.3C14.5 76.2 14 75.5 14.2 74.8 14.3 74.1 15 73.6 15.7 73.8 16.4 73.9 16.9 74.6 16.7 75.3 16.6 76 15.9 76.4 15.2 76.3M20 81.5C19.3 81.5 18.7 81 18.7 80.3S19.2 79 19.9 79 21.2 79.5 21.2 80.2 20.7 81.5 20 81.5M26.5 86.7C25.8 86.8 25.1 86.4 25 85.7S25.3 84.3 26 84.2 27.4 84.5 27.5 85.2C27.6 85.8 27.1 86.5 26.5 86.7M34.3 90.6C33.7 90.9 32.9 90.6 32.6 89.9 32.3 89.3 32.6 88.5 33.3 88.2 33.9 87.9 34.7 88.2 35 88.9 35.2 89.6 35 90.4 34.3 90.6M42.3 92.9C41.7 93.3 40.9 93.2 40.5 92.6S40.2 91.2 40.8 90.8 42.2 90.5 42.6 91.1 42.9 92.5 42.3 92.9M51.1 93.6C50.6 94.1 49.8 94.1 49.3 93.6S48.8 92.3 49.3 91.8 50.6 91.3 51.1 91.8C51.5 92.2 51.5 93 51.1 93.6M59.3 92.6C58.9 93.2 58.1 93.4 57.5 93S56.7 91.8 57.1 91.2 58.3 90.4 58.9 90.8 59.7 92 59.3 92.6M67.6 89.8C67.3 90.5 66.6 90.8 66 90.5 65.3 90.2 65 89.5 65.3 88.9 65.6 88.2 66.3 87.9 66.9 88.2 67.6 88.4 67.9 89.2 67.6 89.8M73.4 86.8C72.7 86.7 72.2 86 72.4 85.3 72.5 84.6 73.2 84.1 73.9 84.3 74.6 84.4 75.1 85.1 74.9 85.8S74.1 86.9 73.4 86.8M50 90.5C27.6 90.5 9.5 72.4 9.5 50S27.6 9.5 50 9.5 90.5 27.7 90.5 50C90.5 72.4 72.4 90.5 50 90.5M81.5 80.1C80.8 80.1 80.2 79.6 80.2 78.9S80.7 77.6 81.4 77.6 82.7 78.1 82.7 78.8C82.8 79.5 82.2 80.1 81.5 80.1M86.6 73.6C85.9 73.8 85.2 73.3 85.1 72.6 84.9 71.9 85.4 71.2 86.1 71.1S87.5 71.4 87.6 72.1C87.8 72.8 87.3 73.4 86.6 73.6M90.6 65.8C90 66.1 89.2 65.8 88.9 65.2S88.9 63.8 89.6 63.5C90.2 63.2 91 63.5 91.3 64.2 91.6 64.7 91.3 65.5 90.6 65.8M92.9 57.8C92.3 58.2 91.5 58.1 91.1 57.5S90.8 56.1 91.4 55.7 92.8 55.4 93.2 56 93.4 57.4 92.9 57.8M91.8 49.1C91.3 48.6 91.3 47.8 91.8 47.3S93.1 46.8 93.6 47.3 94.1 48.6 93.6 49.1C93.1 49.5 92.3 49.5 91.8 49.1" fill="#aba944" data-fill-palette-color="accent"></path><path d="M72.6 69.5C71.2 68.9 70.8 67.9 71 67.8S72 68.5 73.6 68.7C75.3 69 75.7 68.7 75.7 68.7S75.9 67.3 75.5 65.7 74.3 62.9 74.2 62.8C74.1 62.8 70.7 64.1 69.2 63.5 67.7 63 67.3 62.2 67.5 62.2S71.3 62.6 72.1 62.1 72.7 60.7 72.1 60.1C71.7 59.7 70.5 58.7 69.8 58.2 70.6 58.3 72.1 58.4 72.8 58.4 73.7 58.4 74.5 57.9 74.2 57S71.1 53.8 71 53.7C70.9 53.5 71.7 53.3 73.1 54 74.6 54.7 76 58 76.1 58 76.2 58.1 77.6 57.7 79 56.9S81.2 54.9 81.2 54.9 81.1 54.4 79.7 53.4 77.2 52.4 77.2 52.2C77.1 52 78.1 51.5 79.5 52.1S82.1 54.1 82.4 54.2C82.6 54.3 83.7 53.3 84.5 52.2 84.9 51.7 85.3 51.1 85.6 50.6 86 49.9 86.1 49.9 85.6 49.2 85.3 48.7 84.9 48.1 84.5 47.6 83.7 46.6 82.6 45.6 82.4 45.6 82.2 45.7 80.9 47.1 79.5 47.7S77.1 47.8 77.2 47.6 78.4 47.4 79.7 46.4C81.1 45.4 81.2 44.9 81.2 44.9S80.4 43.8 79 42.9C77.6 42.1 76.2 41.7 76.1 41.8S74.5 45.1 73.1 45.8C71.6 46.5 70.8 46.2 71 46.1 71.1 45.9 74 43.7 74.2 42.8 74.5 41.9 73.7 41.4 72.8 41.4 72.2 41.4 70.6 41.5 69.8 41.6 70.4 41.1 71.6 40.1 72.1 39.7 72.7 39.1 72.9 38.2 72.1 37.7S67.7 37.7 67.5 37.6C67.3 37.6 67.7 36.8 69.2 36.3 70.7 35.7 74.1 37 74.2 37S75.1 35.7 75.5 34.1 75.7 31.1 75.7 31.1 75.3 30.8 73.6 31.1 71.1 32.1 71 32C70.8 31.9 71.2 30.9 72.6 30.3S75.9 29.8 76.1 29.7 76.4 28.1 76.2 26.8C76.1 26.2 76 25.5 75.9 25 75.7 24.2 75.7 24.2 74.9 24 74.3 23.9 73.6 23.7 73 23.6 71.7 23.4 70.2 23.5 70.1 23.7S70.1 25.8 69.5 27.2 67.9 29 67.8 28.8 68.5 27.8 68.7 26.2C69 24.5 68.7 24.1 68.7 24.1S67.3 23.9 65.7 24.3 62.9 25.5 62.8 25.6C62.8 25.7 64.1 29.1 63.5 30.6 63 32.1 62.2 32.5 62.2 32.3S62.6 28.5 62.1 27.7 60.7 27.1 60.1 27.7C59.7 28.1 58.7 29.3 58.2 30 58.3 29.2 58.4 27.7 58.4 27 58.4 26.1 57.9 25.3 57 25.6S53.8 28.7 53.7 28.8C53.5 28.9 53.3 28.1 54 26.7 54.7 25.2 58 23.8 58 23.7 58.1 23.6 57.7 22.2 56.9 20.8S54.9 18.6 54.9 18.6 54.4 18.7 53.4 20.1 52.4 22.6 52.2 22.6C52 22.7 51.5 21.7 52.1 20.3S54.1 17.7 54.2 17.4C54.3 17.2 53.3 16.1 52.2 15.3 51.7 14.9 51.1 14.5 50.6 14.2 49.9 13.8 49.9 13.8 49.2 14.2 48.7 14.5 48.1 14.9 47.7 15.3 46.7 16.1 45.7 17.2 45.7 17.4 45.8 17.6 47.2 18.9 47.8 20.3S47.9 22.7 47.7 22.6 47.5 21.4 46.5 20.1C45.5 18.7 45 18.6 45 18.6S43.9 19.4 43 20.8C42.2 22.2 41.8 23.6 41.9 23.7S45.2 25.3 45.9 26.7C46.6 28.2 46.3 29 46.2 28.8 46 28.7 43.8 25.8 42.9 25.6 42 25.3 41.5 26.1 41.5 27 41.5 27.6 41.6 29.2 41.7 30 41.2 29.4 40.2 28.2 39.8 27.7 39.2 27.1 38.3 26.9 37.8 27.7S37.8 32.1 37.7 32.3C37.7 32.5 36.9 32.1 36.4 30.6S37.1 25.7 37.1 25.6 35.8 24.7 34.2 24.3 31.2 24.1 31.2 24.1 30.9 24.5 31.2 26.2 32.2 28.7 32.1 28.8C32 29 31 28.6 30.4 27.2S29.9 23.9 29.8 23.7 28.2 23.4 26.9 23.6C26.3 23.7 25.6 23.8 25 24 24.2 24.2 24.2 24.2 24 25 23.9 25.6 23.7 26.2 23.6 26.8 23.4 28.1 23.5 29.6 23.7 29.7S25.8 29.7 27.2 30.3 29 31.9 28.8 32 27.8 31.3 26.1 31.1C24.4 30.8 24 31.1 24 31.1S23.8 32.5 24.2 34.1 25.4 36.9 25.5 37C25.6 37 29 35.7 30.5 36.3S32.4 37.6 32.2 37.6 28.4 37.2 27.6 37.7 27 39.1 27.6 39.7C28 40.1 29.2 41.1 29.9 41.6 29.1 41.5 27.6 41.4 26.9 41.4 26 41.4 25.2 41.9 25.5 42.8S28.6 46 28.7 46.1C28.8 46.3 28 46.5 26.6 45.8 25.1 45.1 23.7 41.8 23.6 41.8 23.5 41.7 22.1 42.1 20.7 42.9S18.5 44.9 18.5 44.9 18.6 45.4 20 46.4 22.5 47.4 22.5 47.6C22.6 47.8 21.6 48.3 20.2 47.7S17.6 45.7 17.3 45.6C17.1 45.5 16 46.5 15.2 47.6 14.8 48.1 14.4 48.7 14.1 49.2 13.7 49.9 13.7 49.9 14.1 50.6 14.4 51.1 14.8 51.7 15.2 52.2 16 53.2 17.1 54.2 17.3 54.2 17.5 54.1 18.8 52.7 20.2 52.1S22.6 52 22.5 52.2 21.3 52.4 20 53.4C18.6 54.4 18.5 54.9 18.5 54.9S19.3 56 20.7 56.9C22.1 57.7 23.5 58.1 23.6 58S25.2 54.7 26.6 54C28.1 53.3 28.9 53.6 28.7 53.7 28.6 53.9 25.7 56.1 25.5 57 25.2 57.9 26 58.4 26.9 58.4 27.5 58.4 29 58.3 29.9 58.2 29.3 58.7 28.1 59.7 27.6 60.1 27 60.7 26.8 61.6 27.6 62.1S32 62.1 32.2 62.2C32.4 62.2 32 63 30.5 63.5 29 64.1 25.6 62.8 25.5 62.8S24.6 64.1 24.2 65.7 24 68.7 24 68.7 24.4 69 26.1 68.7 28.6 67.7 28.8 67.8 28.6 68.9 27.2 69.5 24 70 23.7 70.1C23.5 70.2 23.4 71.7 23.6 73 23.7 73.6 23.8 74.3 24 74.9 24.2 75.7 24.2 75.7 25 75.9 25.6 76 26.2 76.2 26.8 76.3 28.1 76.5 29.6 76.4 29.7 76.2S29.7 74.1 30.3 72.7 31.9 70.9 32 71.1 31.3 72.1 31.1 73.7C30.8 75.4 31.1 75.8 31.1 75.8S32.5 76 34.1 75.6 36.9 74.4 37 74.3C37 74.2 35.7 70.8 36.3 69.3S37.6 67.4 37.6 67.6 37.2 71.4 37.7 72.2 39.1 72.8 39.7 72.2C40.1 71.8 41.1 70.6 41.6 69.9 41.5 70.7 41.4 72.2 41.4 72.9 41.4 73.8 41.9 74.6 42.8 74.3S46 71.2 46.1 71.1C46.3 71 46.5 71.8 45.8 73.2 45.1 74.7 41.8 76.1 41.8 76.2 41.7 76.3 42.1 77.7 42.9 79.1S44.9 81.3 44.9 81.3 45.4 81.2 46.4 79.8 47.4 77.3 47.6 77.3C47.8 77.2 48.3 78.2 47.7 79.6S45.7 82.2 45.6 82.5C45.5 82.7 46.5 83.8 47.6 84.6 48.1 85 48.7 85.4 49.1 85.7 49.8 86.2 49.8 86.2 50.5 85.7 51 85.4 51.6 85 52.1 84.6 53.1 83.8 54.1 82.7 54.1 82.5 54 82.3 52.6 81 52 79.6S51.9 77.2 52.1 77.3 52.3 78.5 53.3 79.8C54.3 81.2 54.8 81.3 54.8 81.3S55.9 80.5 56.8 79.1C57.6 77.7 58 76.3 57.9 76.2S54.6 74.6 53.9 73.2C53.2 71.7 53.5 70.9 53.6 71.1 53.8 71.2 56 74.1 56.9 74.3 57.8 74.6 58.3 73.8 58.3 72.9 58.3 72.3 58.2 70.7 58.1 69.9 58.6 70.5 59.6 71.7 60 72.2 60.6 72.8 61.5 73 62 72.2S62 67.8 62.1 67.6C62.1 67.4 62.9 67.8 63.4 69.3 64 70.8 62.7 74.2 62.7 74.3S64 75.2 65.6 75.6 68.6 75.8 68.6 75.8 68.9 75.4 68.6 73.7 67.6 71.2 67.7 71.1C67.8 70.9 68.8 71.3 69.4 72.7S69.9 76 70 76.2 71.6 76.5 72.9 76.3C73.5 76.2 74.2 76.1 74.7 75.9 75.5 75.7 75.5 75.7 75.7 74.9 75.8 74.3 76 73.6 76.1 73 76.3 71.7 76.2 70.2 76 70.1 75.9 70 74.1 70.1 72.6 69.5M64 65.9C62.7 64.7 60 63 58.1 62.6 56.3 62.3 54.1 63.2 53.1 64.7 52 66.3 51.4 69.4 51.3 71.2 51.2 74 48.8 74 48.7 71.2 48.6 69.4 48 66.3 46.9 64.7 45.9 63.2 43.7 62.3 41.9 62.6 40 63 37.4 64.7 36 65.9 34 67.7 32.3 66 34.2 64 35.4 62.7 37.1 60 37.5 58.1 37.8 56.5 36.8 54 35.4 53.1 33.8 52 30.7 51.4 28.9 51.3 26.1 51.2 26.1 48.8 28.9 48.7 30.7 48.6 33.8 48 35.4 46.9 36.9 45.9 37.8 43.7 37.5 41.9 37.1 40 35.4 37.4 34.2 36 32.3 34 34 32.3 36 34.2 37.3 35.4 40 37.1 41.9 37.5 46.6 38.4 48.5 32.8 48.7 28.9 48.8 26.1 51.2 26.1 51.3 28.9 51.4 30.7 52 33.8 53.1 35.4 54.1 36.9 56.3 37.8 58.1 37.5 60 37.1 62.6 35.4 64 34.2 66.1 32.3 67.7 34 65.9 36.1 64.7 37.4 63 40.1 62.6 42 62.3 43.8 63.2 46 64.7 47 66.3 48.1 69.4 48.7 71.2 48.8 74 48.9 74 51.3 71.2 51.4 69.4 51.5 66.3 52.1 64.7 53.2 63.2 54.2 62.3 56.4 62.6 58.2 63 60.1 64.7 62.7 65.9 64.1 67.7 66 66 67.7 64 65.9" fill="#aba944" data-fill-palette-color="accent"></path><path d="M50 40.5C44.8 40.5 40.5 44.7 40.5 50 40.5 55.2 44.7 59.5 50 59.5 55.2 59.5 59.5 55.3 59.5 50 59.5 44.8 55.2 40.5 50 40.5M57.4 45.1C57.7 45.8 57.2 47.2 57.2 47.2 59.1 47.3 59.3 48.7 59.4 50 59.3 51.4 59 52.5 57.2 52.8 57.2 52.8 57.7 54.2 57.4 54.9S56 55.6 55.9 55.5C55.7 55.4 56.6 53.7 55.7 53 53.5 51.2 51.2 53.5 53 55.7 53.7 56.6 55.4 55.9 55.5 56 55.6 56.2 55.6 57 54.9 57.4 54.2 57.7 52.8 57.2 52.8 57.2 52.7 59.1 51.3 59.3 50 59.5 48.6 59.4 47.5 59.1 47.2 57.2 47.2 57.2 45.8 57.7 45.1 57.4S44.4 56 44.5 55.9C44.6 55.7 46.3 56.6 47 55.7 48.8 53.5 46.5 51.2 44.3 53 43.4 53.7 44.3 55.4 44.1 55.5S42.9 55.6 42.6 54.9 42.8 52.8 42.8 52.8C41 52.5 40.7 51.4 40.6 50 40.7 48.7 40.9 47.4 42.8 47.2 42.8 47.2 42.3 45.8 42.6 45.1S43.8 44.4 44 44.5 43.5 46.3 44.3 47C46.5 48.8 48.8 46.5 47 44.3 46.3 43.4 44.6 44.3 44.5 44.1S44.4 42.9 45.1 42.6 47.2 42.8 47.2 42.8C47.5 41 48.6 40.7 50 40.5 51.3 40.6 52.6 40.8 52.8 42.8 52.8 42.8 54.1 42.3 54.9 42.6 55.6 42.9 55.6 43.8 55.5 44S53.7 43.5 53 44.3C51.2 46.5 53.5 48.8 55.7 47 56.6 46.3 55.9 44.6 56 44.5 56.2 44.4 57 44.4 57.4 45.1" fill="#aba944" data-fill-palette-color="accent"></path><path d="M85.8 46C86.4 41 82.9 31.3 78.2 27.5 78.4 32.2 76.5 37.9 74.3 39.8 76.5 40 81.8 40.4 85.8 46" fill="#aba944" data-fill-palette-color="accent"></path><path d="M46 14.2C41 13.6 31.3 17.1 27.5 21.8 32.2 21.6 37.9 23.5 39.8 25.7 40 23.5 40.4 18.2 46 14.2" fill="#aba944" data-fill-palette-color="accent"></path><path d="M74.3 60.1C76.5 62.1 78.4 67.8 78.2 72.4 83 68.7 86.4 59 85.8 54 81.8 59.6 76.5 60 74.3 60.1" fill="#aba944" data-fill-palette-color="accent"></path><path d="M60.1 25.7C62.1 23.5 67.8 21.6 72.4 21.8 68.7 17 59 13.6 54 14.2 59.6 18.2 60 23.5 60.1 25.7" fill="#aba944" data-fill-palette-color="accent"></path><path d="M25.7 39.9C23.5 37.9 21.6 32.2 21.8 27.6 17 31.3 13.6 41 14.2 46 18.2 40.4 23.5 40 25.7 39.9" fill="#aba944" data-fill-palette-color="accent"></path><path d="M39.9 74.3C37.9 76.5 32.2 78.4 27.6 78.2 31.3 83 41 86.4 46 85.8 40.4 81.8 40 76.5 39.9 74.3" fill="#aba944" data-fill-palette-color="accent"></path><path d="M14.2 54C13.6 59 17.1 68.7 21.8 72.5 21.6 67.8 23.5 62.1 25.7 60.2 23.5 60 18.2 59.6 14.2 54" fill="#aba944" data-fill-palette-color="accent"></path><path d="M54 85.8C59 86.4 68.7 82.9 72.5 78.2 67.8 78.4 62.1 76.5 60.2 74.3 60 76.5 59.6 81.8 54 85.8" fill="#aba944" data-fill-palette-color="accent"></path></g></svg></g><g transform="matrix(1,0,0,1,93.017578125,3.8439747705008074)"><svg width="395.52" viewBox="1.49 -36.01 272.24 46.51" height="67.56327116212339" data-palette-color="#556970"><path d="M16.99 0L11.5 0 1.49-35.01 6.49-35.01 14.26-7.15 22-35.01 27-35.01 34.74-7.15 42.5-35.01 47.51-35.01 37.5 0 32.01 0 24.51-26.25 16.99 0ZM73.51-21.19L73.51-10.55 56.3-10.55 56.3-4.81 73.51-4.81 73.51 0 56.3 0Q55.32 0 54.44-0.38 53.56-0.76 52.91-1.4 52.27-2.05 51.89-2.93 51.51-3.81 51.51-4.81L51.51-4.81 51.51-21.19Q51.51-22.19 51.89-23.07 52.27-23.95 52.91-24.6 53.56-25.24 54.44-25.62 55.32-26 56.3-26L56.3-26 68.7-26Q69.7-26 70.58-25.62 71.46-25.24 72.1-24.6 72.75-23.95 73.13-23.07 73.51-22.19 73.51-21.19L73.51-21.19ZM68.7-21.19L56.3-21.19 56.3-15.36 68.7-15.36 68.7-21.19ZM81.51-5.81L81.51-21.19Q81.51-22.19 81.89-23.07 82.27-23.95 82.92-24.6 83.56-25.24 84.44-25.62 85.32-26 86.3-26L86.3-26 94.92-26Q95.87-26 96.72-25.65 97.58-25.29 98.22-24.67 98.87-24.05 99.27-23.21 99.68-22.36 99.7-21.41L99.7-21.41 99.7-26 104.51-26 104.51 5.69Q104.51 6.69 104.13 7.57 103.75 8.45 103.11 9.09 102.46 9.74 101.58 10.12 100.7 10.5 99.7 10.5L99.7 10.5 84.52 10.5 84.52 5.69 99.7 5.69 99.7-1 86.3-1Q85.32-1 84.44-1.38 83.56-1.76 82.92-2.4 82.27-3.05 81.89-3.93 81.51-4.81 81.51-5.81L81.51-5.81ZM86.3-5.81L99.7-5.81 99.7-21.19 86.3-21.19 86.3-5.81ZM122.92 0L117.91 0 109.51-26 114.37-26 120.52-6.4 126.26-26 131.17-26 136.91-6.4 143.06-26 147.92-26 139.52 0 134.51 0 128.7-19.09 122.92 0ZM174.92-21.19L174.92-10.55 157.7-10.55 157.7-4.81 174.92-4.81 174.92 0 157.7 0Q156.73 0 155.85-0.38 154.97-0.76 154.32-1.4 153.68-2.05 153.3-2.93 152.92-3.81 152.92-4.81L152.92-4.81 152.92-21.19Q152.92-22.19 153.3-23.07 153.68-23.95 154.32-24.6 154.97-25.24 155.85-25.62 156.73-26 157.7-26L157.7-26 170.11-26Q171.11-26 171.99-25.62 172.87-25.24 173.51-24.6 174.16-23.95 174.54-23.07 174.92-22.19 174.92-21.19L174.92-21.19ZM170.11-21.19L157.7-21.19 157.7-15.36 170.11-15.36 170.11-21.19ZM183.17-26L187.98-26 187.98 0 183.17 0 183.17-26ZM182.92-31.01L182.92-36.01 188.22-36.01 188.22-31.01 182.92-31.01ZM195.71-4.81L211.92-4.81 211.92-10.84 200.52-10.84Q199.52-10.84 198.64-11.22 197.76-11.6 197.12-12.24 196.47-12.89 196.09-13.77 195.71-14.65 195.71-15.65L195.71-15.65 195.71-21.19Q195.71-22.19 196.09-23.07 196.47-23.95 197.12-24.6 197.76-25.24 198.64-25.62 199.52-26 200.52-26L200.52-26 215.73-26 215.73-21.19 200.52-21.19 200.52-15.65 211.92-15.65Q212.92-15.65 213.79-15.27 214.66-14.89 215.32-14.25 215.98-13.6 216.35-12.72 216.73-11.84 216.73-10.84L216.73-10.84 216.73-4.81Q216.73-3.81 216.35-2.93 215.98-2.05 215.32-1.4 214.66-0.76 213.79-0.38 212.92 0 211.92 0L211.92 0 195.71 0 195.71-4.81ZM246.22-21.19L246.22-10.55 229.01-10.55 229.01-4.81 246.22-4.81 246.22 0 229.01 0Q228.03 0 227.16-0.38 226.28-0.76 225.63-1.4 224.98-2.05 224.6-2.93 224.23-3.81 224.23-4.81L224.23-4.81 224.23-21.19Q224.23-22.19 224.6-23.07 224.98-23.95 225.63-24.6 226.28-25.24 227.16-25.62 228.03-26 229.01-26L229.01-26 241.41-26Q242.41-26 243.29-25.62 244.17-25.24 244.82-24.6 245.47-23.95 245.84-23.07 246.22-22.19 246.22-21.19L246.22-21.19ZM241.41-21.19L229.01-21.19 229.01-15.36 241.41-15.36 241.41-21.19ZM268.93-21.19L259.01-21.19 259.01 0 254.23 0 254.23-26 259.01-26 259.01-21.41Q259.06-22.36 259.45-23.21 259.84-24.05 260.49-24.67 261.14-25.29 261.99-25.65 262.85-26 263.82-26L263.82-26 268.93-26Q269.93-26 270.79-25.62 271.66-25.24 272.32-24.6 272.98-23.95 273.36-23.07 273.73-22.19 273.73-21.19L273.73-21.19 273.73-16.8 268.93-16.8 268.93-21.19Z" opacity="1" transform="matrix(1,0,0,1,0,0)" fill="#556970" class="wordmark-text-0" data-fill-palette-color="primary"></path></svg></g></svg></g></svg></g></svg></g></svg></g></svg></g><defs></defs></svg><rect width="395.52" height="60.923384699967905" fill="none" stroke="none" visibility="hidden"></rect></g></svg></g></svg>